<svg xmlns="http://www.w3.org/2000/svg" viewBox="0 0 45 45" height="45" width="45"><path d="M22.526 16.032c-1.26 0-3.002.36-3.723.66-.72.3-1.2.6-1.35 1.35l-.54 4.16v5.73h.932v.9c-.002 1.097 1.602 1.097 1.603 0v-.9h6.046v.9c0 1.097 1.605 1.097 1.606 0v-.9h.93v-5.73l-.54-4.16c-.15-.75-.63-1.05-1.35-1.35-.722-.3-2.463-.66-3.724-.66" fill="#009"/><path d="M26.296 26.136a.768.768 0 1 0-.768-.767c0 .423.343.767.768.766M18.646 26.136a.768.768 0 1 1 .767-.767.765.765 0 0 1-.767.766M22.413 17.757h-2.23c-.45 0-.45-.674 0-.673h4.575c.45 0 .45.674 0 .673h-2.345M22.413 18.44h-3.44c-.478 0-.602.242-.66.607l-.42 3.02c-.04.287.044.574.443.575h8.27c.4 0 .483-.288.444-.576l-.423-3.02c-.056-.364-.18-.606-.657-.606h-3.557" fill="#fff"/></svg>
