<?xml version="1.0" encoding="UTF-8" standalone="no"?>
<svg
   xmlns:dc="http://purl.org/dc/elements/1.1/"
   xmlns:cc="http://creativecommons.org/ns#"
   xmlns:rdf="http://www.w3.org/1999/02/22-rdf-syntax-ns#"
   xmlns:svg="http://www.w3.org/2000/svg"
   xmlns="http://www.w3.org/2000/svg"
   xmlns:sodipodi="http://sodipodi.sourceforge.net/DTD/sodipodi-0.dtd"
   xmlns:inkscape="http://www.inkscape.org/namespaces/inkscape"
   viewBox="0 0 45 45"
   height="45"
   width="45"
   xml:space="preserve"
   version="1.1"
   id="svg3355"
   inkscape:version="0.91 r13725"
   sodipodi:docname="bus.svg"><sodipodi:namedview
     pagecolor="#ffffff"
     bordercolor="#666666"
     borderopacity="1"
     objecttolerance="10"
     gridtolerance="10"
     guidetolerance="10"
     inkscape:pageopacity="0"
     inkscape:pageshadow="2"
     inkscape:window-width="1280"
     inkscape:window-height="706"
     id="namedview17"
     showgrid="false"
     inkscape:zoom="7.9574662"
     inkscape:cx="12.66073"
     inkscape:cy="21.968287"
     inkscape:window-x="0"
     inkscape:window-y="0"
     inkscape:window-maximized="1"
     inkscape:current-layer="svg3355"
     fit-margin-top="0"
     fit-margin-left="0"
     fit-margin-right="0"
     fit-margin-bottom="0" /><metadata
     id="metadata3361"><rdf:RDF><cc:Work
         rdf:about=""><dc:format>image/svg+xml</dc:format><dc:type
           rdf:resource="http://purl.org/dc/dcmitype/StillImage" /><dc:title></dc:title></cc:Work></rdf:RDF></metadata><defs
     id="defs3359" /><g
     transform="translate(-201.34827,-255.14214)"
     id="layer1" /><g
     id="bus"
     transform="matrix(1.25,0,0,-1.25,-201.17512,301.99789)"><path
       inkscape:connector-curvature="0"
       d="m 178.96069,228.77271 c -1.00897,-3.7e-4 -2.40152,-0.28848 -2.9783,-0.52853 -0.57567,-0.24014 -0.95982,-0.48023 -1.07961,-1.0796 l -0.43334,-3.32899 0,-4.58393 0.74645,0 0,-0.7189 c -0.001,-0.87733 1.2817,-0.87733 1.2825,0 l 0,0.7189 4.83693,0 0,-0.7189 c 8e-4,-0.87733 1.28375,-0.87733 1.285,0 l 0,0.7189 0.74395,0 0,4.58393 -0.43335,3.32899 c -0.11978,0.59937 -0.50393,0.83946 -1.0796,1.0796 -0.57677,0.24005 -1.96934,0.52816 -2.9783,0.52853"
       style="fill:#000099;fill-opacity:1;fill-rule:nonzero;stroke:none"
       id="path3367" /><path
       inkscape:connector-curvature="0"
       d="m 181.97656,220.68946 c 0.34037,-9.5e-4 0.6159,0.27464 0.61621,0.6137 -3.1e-4,0.34066 -0.27584,0.61625 -0.61621,0.6162 -0.33936,5e-5 -0.61492,-0.27554 -0.61369,-0.6162 -10e-4,-0.33906 0.27433,-0.61465 0.61369,-0.6137"
       style="fill:#ffffff;fill-opacity:1;fill-rule:nonzero;stroke:none"
       id="path3369" /><path
       inkscape:connector-curvature="0"
       d="m 175.85714,220.68946 c -0.34036,-9.5e-4 -0.61589,0.27464 -0.6162,0.6137 3.1e-4,0.34066 0.27584,0.61625 0.6162,0.6162 0.33936,5e-5 0.61492,-0.27554 0.6137,-0.6162 10e-4,-0.33906 -0.27434,-0.61465 -0.6137,-0.6137"
       style="fill:#ffffff;fill-opacity:1;fill-rule:nonzero;stroke:none"
       id="path3371" /><path
       inkscape:connector-curvature="0"
       d="m 178.87051,227.39252 -1.78347,0 c -0.3598,-7e-4 -0.3598,0.5395 0,0.53855 l 3.65963,0 c 0.3598,9.5e-4 0.3598,-0.53925 0,-0.53855 l -1.87616,0"
       style="fill:#ffffff;fill-opacity:1;fill-rule:nonzero;stroke:none"
       id="path3373" /><path
       inkscape:connector-curvature="0"
       d="m 178.87051,226.84646 -2.75286,0 c -0.38162,-5e-5 -0.48101,-0.19335 -0.52602,-0.48595 l -0.33816,-2.4147 c -0.0307,-0.23065 0.0362,-0.46027 0.35569,-0.4609 l 6.61539,0 c 0.31952,6.3e-4 0.38643,0.23025 0.35569,0.4609 l -0.33816,2.4147 c -0.045,0.2926 -0.1444,0.4859 -0.52602,0.48595 l -2.84555,0"
       style="fill:#ffffff;fill-opacity:1;fill-rule:nonzero;stroke:none"
       id="path3375" /></g></svg>