<?xml version="1.0" encoding="UTF-8"?>
<svg width="612" height="612" xmlns="http://www.w3.org/2000/svg">

 <g>
  <title>background</title>
  <rect fill="none" id="canvas_background" height="402" width="582" y="-1" x="-1"/>
 </g>
 <g>
  <title>Layer 1</title>
  <g id="g3390">
   <path fill="#2c3e50" stroke="#2c3e50" stroke-width="3.408" id="path3392" d="m82.431801,17.924299c-41.334,0 -64.571001,21.370001 -64.571001,65.035097l0,450.121597c0,40.843018 20.891001,62.228027 62.192003,62.228027l452.0252,0c41.302979,0 62.226013,-20.320007 62.226013,-62.228027l0,-450.121597c0,-42.600098 -20.923035,-65.035097 -63.52301,-65.035097c0,0 -448.491203,-0.143 -448.349205,0z"/>
   <g id="g3394">
    <path fill="#ffffff" id="path3396" d="m308.70401,103.237c-40.255005,0 -95.849014,11.501999 -118.853012,21.086998c-23.003998,9.584999 -38.339996,19.170006 -43.132004,43.131996l-17.251999,132.841003l0,183.045013l29.712006,0l0,28.704987c0,35 51.218002,35 51.218002,0l0,-28.704987l94.557007,0l0.299988,0l98.307007,0l0,28.704987c0,35 51.217987,35 51.217987,0l0,-28.704987l29.712006,0l0,-183.045013l-17.251984,-132.841003c-4.792023,-23.96199 -20.128021,-33.546997 -43.132019,-43.131996c-23.003998,-9.584999 -78.597992,-21.086998 -118.852997,-21.086998"/>
    <g id="g3398">
     <g id="g3400">
      <g id="g3402">
       <path fill="#2c3e50" id="path3404" d="m429.148987,425.959991c13.568024,0 24.568024,-11.001984 24.568024,-24.569977c0,-13.568024 -11,-24.570007 -24.568024,-24.570007c-13.567993,0 -24.569,11.001984 -24.569,24.570007c0,13.567993 11.001007,24.569977 24.569,24.569977z"/>
       <path fill="#000000" id="path3406"/>
      </g>
      <g id="g3408">
       <path fill="#2c3e50" id="path3410" d="m184.809006,425.959991c-13.568008,0 -24.568008,-11.001984 -24.568008,-24.569977c0,-13.568024 11,-24.570007 24.568008,-24.570007c13.567993,0 24.569,11.001984 24.569,24.570007c0,13.567993 -11.001007,24.569977 -24.569,24.569977z"/>
       <path fill="#000000" id="path3412"/>
      </g>
     </g>
     <path fill="#2c3e50" id="path3414" d="m304.996613,157.765137l-71.136017,0c-14.377991,0 -14.377991,-21.56601 0,-21.56601l71.311005,0l74.761017,0c14.377991,0 14.377991,21.56601 0,21.56601l-74.936005,0z"/>
     <path fill="#2c3e50" id="path3416" d="m304.996613,179.539124l-109.897003,0c-15.188004,0 -19.156006,7.718002 -21,19.423004l-13.428009,96.347992c-1.252991,9.235016 1.419006,18.402008 14.178009,18.402008l130.321991,0l133.772003,0c12.759003,0 15.431,-9.166992 14.178009,-18.402008l-13.428009,-96.347992c-1.843994,-11.705002 -5.812012,-19.423004 -21,-19.423004l-113.696991,0z"/>
    </g>
   </g>
  </g>
 </g>
</svg>