<svg xmlns="http://www.w3.org/2000/svg" xmlns:xlink="http://www.w3.org/1999/xlink" version="1.1" x="0px" y="0px" width="100px" height="100px" viewBox="0 0 100 100" enable-background="new 0 0 100 100" xml:space="preserve">
<g id="Captions">
</g>
<g id="Your_Icon">
	<path d="M100,97l-34.152-9.154L34.153,96.34L0,87.188V1.36l34.153,9.153L65.848,2.02L100,11.171V97z M65.848,85.789l32.165,8.618   v-81.71l-32.165-8.62l-31.695,8.494L1.988,3.952v81.71l32.165,8.62L65.848,85.789z"/>
	<polygon points="32.204,39.276 32.235,39.245 32.235,20.666 23.226,29.967  "/>
	<polygon points="16.711,55.273 4.374,42.48 4.374,68.01  "/>
	<polygon points="30.993,40.528 4.374,12.923 4.374,39.973 17.922,54.021  "/>
	<polygon points="21.651,28.333 32.235,17.405 32.235,14.528 4.374,7.061 4.374,10.415  "/>
	<polygon points="18.053,57.146 4.374,71.27 4.374,83.832 32.235,91.297 32.235,81.864  "/>
	<polygon points="32.235,42.506 19.331,55.828 32.235,78.319  "/>
	<polygon points="36.069,37.52 36.069,42.259 39.761,44.109 63.27,7.24 53.75,9.79  "/>
	<polygon points="41.337,44.898 48.943,48.711 63.931,34.86 63.931,9.464  "/>
	<polygon points="63.931,37.238 50.611,49.547 63.931,56.222  "/>
	<polygon points="36.069,34.259 43.001,23.389 36.069,19.915  "/>
	<polygon points="37.664,85.901 41.033,89.97 63.931,83.832 63.931,74.196  "/>
	<polygon points="36.069,44.767 36.069,83.976 36.443,84.428 63.931,72.179 63.931,58.729  "/>
	<polygon points="44.213,21.488 51.243,10.462 36.069,14.528 36.069,17.409  "/>
	<polygon points="36.069,87.521 36.069,91.297 38.631,90.612  "/>
	<polygon points="80.266,74.643 67.765,73.515 67.765,83.832 95.626,91.297 95.626,90.571  "/>
	<polygon points="67.765,61.679 67.765,71.496 78.135,72.432  "/>
	<polygon points="95.626,58.758 71.171,33.398 67.765,34.72 67.765,59.171 95.626,88.063  "/>
	<polygon points="67.765,32.342 95.626,21.525 95.626,14.528 67.765,7.063  "/>
	<polygon points="72.93,32.715 95.626,56.25 95.626,23.903  "/>
</g>
</svg>